<?xml version="1.0" encoding="UTF-8" standalone="no"?>
<svg
   viewBox="0 0 32 32"
   version="1.1"
   id="svg6"
   sodipodi:docname="system-log-out-rtl.svg"
   inkscape:version="1.1.2 (0a00cf5339, 2022-02-04)"
   xmlns:inkscape="http://www.inkscape.org/namespaces/inkscape"
   xmlns:sodipodi="http://sodipodi.sourceforge.net/DTD/sodipodi-0.dtd"
   xmlns:xlink="http://www.w3.org/1999/xlink"
   xmlns="http://www.w3.org/2000/svg"
   xmlns:svg="http://www.w3.org/2000/svg">
  <sodipodi:namedview
     id="namedview8"
     pagecolor="#ffffff"
     bordercolor="#666666"
     borderopacity="1.0"
     inkscape:pageshadow="2"
     inkscape:pageopacity="0.0"
     inkscape:pagecheckerboard="0"
     showgrid="true"
     inkscape:zoom="9.71875"
     inkscape:cx="-7.9228296"
     inkscape:cy="13.118971"
     inkscape:window-width="1920"
     inkscape:window-height="1015"
     inkscape:window-x="0"
     inkscape:window-y="0"
     inkscape:window-maximized="1"
     inkscape:current-layer="svg6">
    <inkscape:grid
       type="xygrid"
       id="grid1149" />
  </sodipodi:namedview>
  <defs
     id="defs3051">
    <style
       type="text/css"
       id="current-color-scheme">
      .ColorScheme-Text {
        color:#eff0f1;
      }
      </style>
    <linearGradient
       inkscape:collect="always"
       id="linearGradient1138">
      <stop
         style="stop-color:#80b3ff;stop-opacity:1"
         offset="0"
         id="stop1134" />
      <stop
         style="stop-color:#80ffb3;stop-opacity:1"
         offset="1"
         id="stop1136" />
    </linearGradient>
    <linearGradient
       inkscape:collect="always"
       xlink:href="#linearGradient1138"
       id="linearGradient1679"
       gradientUnits="userSpaceOnUse"
       gradientTransform="matrix(1.0476192,0,0,1.0476192,-32.76191,-32.761901)"
       x1="5.5"
       y1="16"
       x2="26.5"
       y2="16" />
    <linearGradient
       inkscape:collect="always"
       xlink:href="#linearGradient1138"
       id="linearGradient2068"
       gradientUnits="userSpaceOnUse"
       gradientTransform="matrix(-0.95893213,0,0,-0.88484868,32.665756,29.593938)"
       x1="10"
       y1="15.25"
       x2="24.992121"
       y2="15.25" />
    <linearGradient
       inkscape:collect="always"
       xlink:href="#linearGradient1138"
       id="linearGradient2070"
       gradientUnits="userSpaceOnUse"
       x1="4"
       y1="16"
       x2="28"
       y2="16"
       gradientTransform="rotate(180,16,16)" />
  </defs>
  <rect
     style="opacity:0.2;fill:url(#linearGradient1679);fill-opacity:1;stroke:none;stroke-width:0.55"
     id="center-3-35-8"
     width="22"
     height="22"
     x="-27"
     y="-26.999998"
     ry="10.999983"
     transform="scale(-1)" />
  <path
     d="m 8.700176,18.872837 c 10e-4,0.110014 0.0502,0.214937 0.1344,0.292812 l 4.45461,4.110475 c 0.13133,0.120987 0.3286,0.157093 0.50008,0.09169 0.17146,-0.0656 0.28313,-0.21985 0.28332,-0.391119 l 0.0161,-2.243622 c 5.71108,-0.05482 9.60776,-3.737083 9.17916,-8.721337 -0.13613,-1.000593 -0.3848,-1.992466 -0.75071,-2.9310226 v -1.95e-4 c -0.075,-0.192817 -0.28863,-0.308506 -0.50763,-0.274666 -0.2188,0.03366 -0.38024,0.207185 -0.38333,0.411907 -0.0628,3.9954876 -2.94726,7.4943326 -7.55371,7.6336286 v -2.09569 c -2.2e-4,-0.171268 -0.11181,-0.325521 -0.28332,-0.391119 -0.17148,-0.06538 -0.36877,-0.02931 -0.50009,0.09166 l -4.45462,4.110485 c -0.0878,0.08103 -0.13623,0.191493 -0.13438,0.306039 z m 1.1077,-0.007 h 1.6e-4 10e-6 v 0 0 0 0 0 0 0 0 0 z"
     id="path2-367-7"
     sodipodi:nodetypes="ccccccccccccccccccccccccccccccc"
     style="fill:url(#linearGradient2068);fill-opacity:1;stroke-width:0.050378" />
  <path
     d="M 15.99682,28 C 22.61328,28 28,22.618592 28,16.000244 28.00019,9.381898 22.61328,4 15.99682,4 9.38036,4 4,9.381409 4,16.000244 4,22.618592 9.37987,28 15.99682,28 Z m 0,-2.111 C 10.30511,25.889 6.111,21.693479 6.111,16.000244 6.111,10.306912 10.30472,6.105 15.99682,6.105 c 5.69171,0 9.89218,4.201863 9.89218,9.895244 1.9e-4,5.693334 -4.20022,9.888756 -9.89218,9.888756 z"
     fill-rule="evenodd"
     id="path2-3675-2"
     style="fill:url(#linearGradient2070);fill-opacity:1;stroke-width:0.0488838"
     sodipodi:nodetypes="scsssssscs" />
</svg>
